# xmcd
#
# Track frame offsets:
#	150
#	15145
#	34157
#	49392
#	69399
#	85909
#	104540
#	121816
#	139058
#	155379
#	173002
#	190865
#	203598
#	217954
#	234195
#	252284
#	266333
#	281868
#	299780
#	310546
#
# Disc length: 4337 seconds
# Revision: 0
# Processed by: cddbd v1.5.2PL0 Copyright (c) Steve Scherf et al.
# Submitted via: dBpowerAMP V12.0
#
DISCID=1510ef14
DTITLE=Various Artist - Country Radio April 2008
DYEAR=2008
DGENRE=Country
TTITLE0=Tim McGraw - Kristofferson
TTITLE1=Rascal Flatts - Every Day
TTITLE2=George Strait - I Saw God Today
TTITLE3=Jessie Farrell - Best Of Me
TTITLE4=Doc Walker - Beautiful Life
TTITLE5=Brad Paisley - I'm Still A Guy
TTITLE6=Dolly Parton - Jesus and Gravity (Radio Edit)
TTITLE7=Jewel - Stronger Woman
TTITLE8=Phil Stacey - If You Didn't Love Me
TTITLE9=James Otto - Just Got Started Lovin You
TTITLE10=Montgomery Gemtry - Back When I Knew It All
TTITLE11=Jo Dee Messina - I'm Done
TTITLE12=Julianne Hough - That Song In My head
TTITLE13=Carter's Chord - Young Love
TTITLE14=Reba McEntire and Kenny Chesney - Every Other Weekend
TTITLE15=Toby Keith - She's A Hottie
TTITLE16=Clint Black - Long Cool Woman
TTITLE17=Tracy Bone - Standards
TTITLE18=JR Vautour - I Give
TTITLE19=Jennifer Hanson - 73
EXTD=
EXTT0=
EXTT1=
EXTT2=
EXTT3=
EXTT4=
EXTT5=
EXTT6=
EXTT7=
EXTT8=
EXTT9=
EXTT10=
EXTT11=
EXTT12=
EXTT13=
EXTT14=
EXTT15=
EXTT16=
EXTT17=
EXTT18=
EXTT19=
PLAYORDER=
